<svg xmlns="http://www.w3.org/2000/svg" viewBox="0 0 64 64" fill="none">
  <defs>
    <linearGradient id="g" x1="0" x2="64" y1="0" y2="64" gradientUnits="userSpaceOnUse">
      <stop stop-color="#10b981"/>
      <stop offset="1" stop-color="#059669"/>
    </linearGradient>
  </defs>
  <rect x="6" y="6" width="52" height="52" rx="12" fill="url(#g)"/>
  <path d="M32 14c2 0 3.6 1.4 4 3.2l1.1 4.3c.2.8.9 1.4 1.7 1.6l4.3 1.1C45.9 24.6 47.3 26.2 47.3 28c0 1-.4 2-1.1 2.7L41.6 35.3c-.6.6-.8 1.6-.6 2.4l.9 4.4c.5 2.4-1.5 4.5-3.9 4.1l-4.5-.9c-.8-.2-1.7.1-2.2.7l-4.6 4.6C24 52 22.4 52.4 21 51.8 19.6 51.2 18.7 49.9 18.7 48.4V21c0-3.9 3.1-7 7-7H32z" fill="#fff"/>
</svg>






